<svg width="109" height="76" viewBox="0 0 109 76" fill="none" xmlns="http://www.w3.org/2000/svg">
<g filter="url(#filter0_dii_1_711)">
<path d="M100.579 10.5742C101.057 9.39578 102.748 9.46468 103.128 10.678C103.291 11.2004 103.758 11.5735 104.303 11.623C105.565 11.7375 106.056 13.3394 105.056 14.117L104.946 14.2026C104.517 14.5364 104.317 15.0866 104.432 15.618L104.473 15.8082C104.736 17.0246 103.346 17.913 102.352 17.1631C101.906 16.826 101.297 16.8012 100.825 17.1009C99.7737 17.7675 98.46 16.7689 98.821 15.5779L98.8775 15.3918C99.0352 14.8715 98.8808 14.3068 98.4802 13.9392L98.3775 13.8449C97.4444 12.9886 98.0643 11.4319 99.3307 11.4204C99.878 11.4154 100.374 11.0815 100.579 10.5742Z" fill="url(#paint0_radial_1_711)"/>
</g>
<g filter="url(#filter1_ii_1_711)">
<path d="M95.567 23.6606C95.2646 26.2961 94.4445 29.6769 86.3472 29.6237C78.2499 29.5706 79.4011 25.0206 79.7035 22.3851C80.0059 19.7496 83.3138 17.8135 87.5979 18.2538C91.8821 18.694 95.8694 21.0251 95.567 23.6606Z" fill="url(#paint1_linear_1_711)"/>
<path d="M93.2366 15.2789C92.9342 17.9145 92.1141 21.2953 84.0168 21.2421C75.9195 21.1889 77.0707 16.639 77.3731 14.0035C77.6755 11.3679 80.9834 9.43192 85.2675 9.87215C89.5517 10.3124 93.539 12.6434 93.2366 15.2789Z" fill="url(#paint2_linear_1_711)"/>
<ellipse cx="8.95087" cy="6.96247" rx="8.95087" ry="6.96247" transform="matrix(0.985355 0.170517 -0.189714 0.981839 79.9983 2.44006)" fill="url(#paint3_radial_1_711)"/>
<path d="M81.4028 8.22438C82.1541 9.98137 80.5798 12.4165 77.8942 13.445C75.2085 14.4735 72.0662 14.1425 71.3149 12.3855C70.5636 10.6285 72.1379 8.19339 74.8236 7.1649C77.5092 6.13642 80.6515 6.46739 81.4028 8.22438Z" fill="url(#paint4_linear_1_711)"/>
<path d="M81.0928 25.9323C77.9522 28.5991 72.8352 28.0492 69.6635 24.704C66.4919 21.3589 66.4667 16.4853 69.6072 13.8185C72.7478 11.1517 77.8648 11.7015 81.0365 15.0467C84.2081 18.3918 84.2333 23.2654 81.0928 25.9323Z" fill="url(#paint5_linear_1_711)"/>
<path d="M93.5357 26.2763C90.2261 25.7683 89.2451 22.3492 89.9494 18.2399C91.4426 14.393 93.5135 12.0626 96.8231 12.5707C100.133 13.0787 102.108 16.3221 101.403 20.4315C100.699 24.5408 96.8453 26.7843 93.5357 26.2763Z" fill="url(#paint6_radial_1_711)"/>
</g>
<g filter="url(#filter2_dii_1_711)">
<path d="M68.3088 12.4039C69.7243 19.5393 84.7387 18.5207 75.0204 22.3992C69.2756 24.6919 62.7599 21.8934 60.4672 16.1487C58.1745 10.4039 60.973 3.88819 66.7178 1.59549C76.6395 -2.36417 66.0683 4.80152 68.3088 12.4039Z" fill="url(#paint7_radial_1_711)"/>
</g>
<g filter="url(#filter3_ii_1_711)">
<path d="M68.6178 31.5422C68.3154 34.1777 67.4952 37.5586 59.398 37.5054C51.3007 37.4522 52.4519 32.9022 52.7543 30.2667C53.0567 27.6312 56.3646 25.6952 60.6487 26.1354C64.9329 26.5757 68.9202 28.9067 68.6178 31.5422Z" fill="url(#paint8_linear_1_711)"/>
<path d="M66.2874 23.1606C65.985 25.7961 65.1648 29.177 57.0676 29.1238C48.9703 29.0706 50.1215 24.5206 50.4239 21.8851C50.7263 19.2496 54.0342 17.3136 58.3183 17.7538C62.6025 18.194 66.5898 20.5251 66.2874 23.1606Z" fill="url(#paint9_linear_1_711)"/>
<ellipse cx="8.95087" cy="6.96247" rx="8.95087" ry="6.96247" transform="matrix(0.985355 0.170517 -0.189714 0.981839 53.0491 10.3217)" fill="url(#paint10_radial_1_711)"/>
<path d="M54.4536 16.106C55.2049 17.863 53.6306 20.2982 50.9449 21.3266C48.2593 22.3551 45.117 22.0242 44.3657 20.2672C43.6144 18.5102 45.1887 16.075 47.8743 15.0466C50.56 14.0181 53.7023 14.349 54.4536 16.106Z" fill="url(#paint11_linear_1_711)"/>
<path d="M54.1435 33.8139C51.003 36.4807 45.8859 35.9308 42.7143 32.5857C39.5427 29.2406 39.5175 24.3669 42.658 21.7001C45.7986 19.0333 50.9156 19.5832 54.0872 22.9283C57.2589 26.2735 57.2841 31.1471 54.1435 33.8139Z" fill="url(#paint12_linear_1_711)"/>
<path d="M66.5865 34.158C63.2768 33.6499 62.2959 30.2309 63.0002 26.1215C64.4934 22.2746 66.5643 19.9443 69.8739 20.4523C73.1835 20.9604 75.1584 24.2038 74.4541 28.3131C73.7498 32.4224 69.8961 34.666 66.5865 34.158Z" fill="url(#paint13_radial_1_711)"/>
</g>
<g filter="url(#filter4_dii_1_711)">
<path d="M43.0786 17.9534C43.7547 16.8767 45.4079 17.2406 45.5693 18.5017C45.6388 19.0446 46.0335 19.4938 46.5615 19.6379C47.7833 19.9715 47.9864 21.6346 46.8661 22.2252L46.7427 22.2902C46.2618 22.5438 45.9687 23.0505 45.9888 23.5938L45.996 23.7882C46.0419 25.0319 44.5173 25.6631 43.6706 24.7509C43.29 24.3408 42.695 24.2098 42.1773 24.4222C41.0259 24.8944 39.9073 23.6813 40.4713 22.5719L40.5595 22.3985C40.8058 21.9139 40.7527 21.3309 40.4227 20.8988L40.338 20.788C39.5693 19.7815 40.4521 18.3575 41.701 18.5678C42.2407 18.6587 42.7876 18.4169 43.0786 17.9534Z" fill="url(#paint14_radial_1_711)"/>
</g>
<g filter="url(#filter5_dii_1_711)">
<path d="M79.1925 29.315C79.3656 28.0554 81.022 27.7069 81.6881 28.7898C81.9748 29.256 82.5195 29.5029 83.06 29.4171C84.3108 29.2183 85.1803 30.6506 84.4022 31.6499L84.3166 31.7599C83.9826 32.1888 83.924 32.7713 84.1658 33.2582L84.2523 33.4324C84.8059 34.547 83.6761 35.7497 82.5292 35.2667C82.0135 35.0496 81.4173 35.175 81.0329 35.5816C80.1778 36.4858 78.6591 35.8404 78.7166 34.5972L78.7256 34.4029C78.7507 33.8598 78.4624 33.3504 77.9838 33.0924L77.8611 33.0262C76.7463 32.4252 76.9649 30.764 78.1897 30.4419C78.719 30.3026 79.1179 29.8571 79.1925 29.315Z" fill="url(#paint15_radial_1_711)"/>
</g>
<defs>
<filter id="filter0_dii_1_711" x="57.9285" y="7.72803" width="49.6616" height="49.7109" filterUnits="userSpaceOnUse" color-interpolation-filters="sRGB">
<feFlood flood-opacity="0" result="BackgroundImageFix"/>
<feColorMatrix in="SourceAlpha" type="matrix" values="0 0 0 0 0 0 0 0 0 0 0 0 0 0 0 0 0 0 127 0" result="hardAlpha"/>
<feOffset dx="-20" dy="20"/>
<feGaussianBlur stdDeviation="10"/>
<feComposite in2="hardAlpha" operator="out"/>
<feColorMatrix type="matrix" values="0 0 0 0 0 0 0 0 0 0 0 0 0 0 0 0 0 0 0.25 0"/>
<feBlend mode="normal" in2="BackgroundImageFix" result="effect1_dropShadow_1_711"/>
<feBlend mode="normal" in="SourceGraphic" in2="effect1_dropShadow_1_711" result="shape"/>
<feColorMatrix in="SourceAlpha" type="matrix" values="0 0 0 0 0 0 0 0 0 0 0 0 0 0 0 0 0 0 127 0" result="hardAlpha"/>
<feOffset dx="2" dy="-2"/>
<feGaussianBlur stdDeviation="1"/>
<feComposite in2="hardAlpha" operator="arithmetic" k2="-1" k3="1"/>
<feColorMatrix type="matrix" values="0 0 0 0 0 0 0 0 0 0 0 0 0 0 0 0 0 0 0.25 0"/>
<feBlend mode="normal" in2="shape" result="effect2_innerShadow_1_711"/>
<feColorMatrix in="SourceAlpha" type="matrix" values="0 0 0 0 0 0 0 0 0 0 0 0 0 0 0 0 0 0 127 0" result="hardAlpha"/>
<feOffset dx="-2" dy="2"/>
<feGaussianBlur stdDeviation="1"/>
<feComposite in2="hardAlpha" operator="arithmetic" k2="-1" k3="1"/>
<feColorMatrix type="matrix" values="0 0 0 0 1 0 0 0 0 1 0 0 0 0 1 0 0 0 0.25 0"/>
<feBlend mode="normal" in2="effect2_innerShadow_1_711" result="effect3_innerShadow_1_711"/>
</filter>
<filter id="filter1_ii_1_711" x="65.2683" y="1.79651" width="38.2771" height="29.8279" filterUnits="userSpaceOnUse" color-interpolation-filters="sRGB">
<feFlood flood-opacity="0" result="BackgroundImageFix"/>
<feBlend mode="normal" in="SourceGraphic" in2="BackgroundImageFix" result="shape"/>
<feColorMatrix in="SourceAlpha" type="matrix" values="0 0 0 0 0 0 0 0 0 0 0 0 0 0 0 0 0 0 127 0" result="hardAlpha"/>
<feOffset dx="2" dy="-2"/>
<feGaussianBlur stdDeviation="1"/>
<feComposite in2="hardAlpha" operator="arithmetic" k2="-1" k3="1"/>
<feColorMatrix type="matrix" values="0 0 0 0 0 0 0 0 0 0 0 0 0 0 0 0 0 0 0.25 0"/>
<feBlend mode="normal" in2="shape" result="effect1_innerShadow_1_711"/>
<feColorMatrix in="SourceAlpha" type="matrix" values="0 0 0 0 0 0 0 0 0 0 0 0 0 0 0 0 0 0 127 0" result="hardAlpha"/>
<feOffset dx="-2" dy="2"/>
<feGaussianBlur stdDeviation="1"/>
<feComposite in2="hardAlpha" operator="arithmetic" k2="-1" k3="1"/>
<feColorMatrix type="matrix" values="0 0 0 0 1 0 0 0 0 1 0 0 0 0 1 0 0 0 0.25 0"/>
<feBlend mode="normal" in2="effect1_innerShadow_1_711" result="effect2_innerShadow_1_711"/>
</filter>
<filter id="filter2_dii_1_711" x="19.6665" y="-1.5311" width="60.6072" height="64.7311" filterUnits="userSpaceOnUse" color-interpolation-filters="sRGB">
<feFlood flood-opacity="0" result="BackgroundImageFix"/>
<feColorMatrix in="SourceAlpha" type="matrix" values="0 0 0 0 0 0 0 0 0 0 0 0 0 0 0 0 0 0 127 0" result="hardAlpha"/>
<feOffset dx="-20" dy="20"/>
<feGaussianBlur stdDeviation="10"/>
<feComposite in2="hardAlpha" operator="out"/>
<feColorMatrix type="matrix" values="0 0 0 0 0 0 0 0 0 0 0 0 0 0 0 0 0 0 0.25 0"/>
<feBlend mode="normal" in2="BackgroundImageFix" result="effect1_dropShadow_1_711"/>
<feBlend mode="normal" in="SourceGraphic" in2="effect1_dropShadow_1_711" result="shape"/>
<feColorMatrix in="SourceAlpha" type="matrix" values="0 0 0 0 0 0 0 0 0 0 0 0 0 0 0 0 0 0 127 0" result="hardAlpha"/>
<feOffset dx="2" dy="-2"/>
<feGaussianBlur stdDeviation="1"/>
<feComposite in2="hardAlpha" operator="arithmetic" k2="-1" k3="1"/>
<feColorMatrix type="matrix" values="0 0 0 0 0 0 0 0 0 0 0 0 0 0 0 0 0 0 0.25 0"/>
<feBlend mode="normal" in2="shape" result="effect2_innerShadow_1_711"/>
<feColorMatrix in="SourceAlpha" type="matrix" values="0 0 0 0 0 0 0 0 0 0 0 0 0 0 0 0 0 0 127 0" result="hardAlpha"/>
<feOffset dx="-2" dy="2"/>
<feGaussianBlur stdDeviation="1"/>
<feComposite in2="hardAlpha" operator="arithmetic" k2="-1" k3="1"/>
<feColorMatrix type="matrix" values="0 0 0 0 1 0 0 0 0 1 0 0 0 0 1 0 0 0 0.25 0"/>
<feBlend mode="normal" in2="effect2_innerShadow_1_711" result="effect3_innerShadow_1_711"/>
</filter>
<filter id="filter3_ii_1_711" x="38.3191" y="9.67816" width="38.2771" height="29.8279" filterUnits="userSpaceOnUse" color-interpolation-filters="sRGB">
<feFlood flood-opacity="0" result="BackgroundImageFix"/>
<feBlend mode="normal" in="SourceGraphic" in2="BackgroundImageFix" result="shape"/>
<feColorMatrix in="SourceAlpha" type="matrix" values="0 0 0 0 0 0 0 0 0 0 0 0 0 0 0 0 0 0 127 0" result="hardAlpha"/>
<feOffset dx="2" dy="-2"/>
<feGaussianBlur stdDeviation="1"/>
<feComposite in2="hardAlpha" operator="arithmetic" k2="-1" k3="1"/>
<feColorMatrix type="matrix" values="0 0 0 0 0 0 0 0 0 0 0 0 0 0 0 0 0 0 0.25 0"/>
<feBlend mode="normal" in2="shape" result="effect1_innerShadow_1_711"/>
<feColorMatrix in="SourceAlpha" type="matrix" values="0 0 0 0 0 0 0 0 0 0 0 0 0 0 0 0 0 0 127 0" result="hardAlpha"/>
<feOffset dx="-2" dy="2"/>
<feGaussianBlur stdDeviation="1"/>
<feComposite in2="hardAlpha" operator="arithmetic" k2="-1" k3="1"/>
<feColorMatrix type="matrix" values="0 0 0 0 1 0 0 0 0 1 0 0 0 0 1 0 0 0 0.25 0"/>
<feBlend mode="normal" in2="effect1_innerShadow_1_711" result="effect2_innerShadow_1_711"/>
</filter>
<filter id="filter4_dii_1_711" x="0.0507812" y="15.318" width="49.5515" height="49.8652" filterUnits="userSpaceOnUse" color-interpolation-filters="sRGB">
<feFlood flood-opacity="0" result="BackgroundImageFix"/>
<feColorMatrix in="SourceAlpha" type="matrix" values="0 0 0 0 0 0 0 0 0 0 0 0 0 0 0 0 0 0 127 0" result="hardAlpha"/>
<feOffset dx="-20" dy="20"/>
<feGaussianBlur stdDeviation="10"/>
<feComposite in2="hardAlpha" operator="out"/>
<feColorMatrix type="matrix" values="0 0 0 0 0 0 0 0 0 0 0 0 0 0 0 0 0 0 0.25 0"/>
<feBlend mode="normal" in2="BackgroundImageFix" result="effect1_dropShadow_1_711"/>
<feBlend mode="normal" in="SourceGraphic" in2="effect1_dropShadow_1_711" result="shape"/>
<feColorMatrix in="SourceAlpha" type="matrix" values="0 0 0 0 0 0 0 0 0 0 0 0 0 0 0 0 0 0 127 0" result="hardAlpha"/>
<feOffset dx="2" dy="-2"/>
<feGaussianBlur stdDeviation="1"/>
<feComposite in2="hardAlpha" operator="arithmetic" k2="-1" k3="1"/>
<feColorMatrix type="matrix" values="0 0 0 0 0 0 0 0 0 0 0 0 0 0 0 0 0 0 0.25 0"/>
<feBlend mode="normal" in2="shape" result="effect2_innerShadow_1_711"/>
<feColorMatrix in="SourceAlpha" type="matrix" values="0 0 0 0 0 0 0 0 0 0 0 0 0 0 0 0 0 0 127 0" result="hardAlpha"/>
<feOffset dx="-2" dy="2"/>
<feGaussianBlur stdDeviation="1"/>
<feComposite in2="hardAlpha" operator="arithmetic" k2="-1" k3="1"/>
<feColorMatrix type="matrix" values="0 0 0 0 1 0 0 0 0 1 0 0 0 0 1 0 0 0 0.25 0"/>
<feBlend mode="normal" in2="effect2_innerShadow_1_711" result="effect3_innerShadow_1_711"/>
</filter>
<filter id="filter5_dii_1_711" x="37.136" y="26.1438" width="49.5613" height="49.861" filterUnits="userSpaceOnUse" color-interpolation-filters="sRGB">
<feFlood flood-opacity="0" result="BackgroundImageFix"/>
<feColorMatrix in="SourceAlpha" type="matrix" values="0 0 0 0 0 0 0 0 0 0 0 0 0 0 0 0 0 0 127 0" result="hardAlpha"/>
<feOffset dx="-20" dy="20"/>
<feGaussianBlur stdDeviation="10"/>
<feComposite in2="hardAlpha" operator="out"/>
<feColorMatrix type="matrix" values="0 0 0 0 0 0 0 0 0 0 0 0 0 0 0 0 0 0 0.25 0"/>
<feBlend mode="normal" in2="BackgroundImageFix" result="effect1_dropShadow_1_711"/>
<feBlend mode="normal" in="SourceGraphic" in2="effect1_dropShadow_1_711" result="shape"/>
<feColorMatrix in="SourceAlpha" type="matrix" values="0 0 0 0 0 0 0 0 0 0 0 0 0 0 0 0 0 0 127 0" result="hardAlpha"/>
<feOffset dx="2" dy="-2"/>
<feGaussianBlur stdDeviation="1"/>
<feComposite in2="hardAlpha" operator="arithmetic" k2="-1" k3="1"/>
<feColorMatrix type="matrix" values="0 0 0 0 0 0 0 0 0 0 0 0 0 0 0 0 0 0 0.25 0"/>
<feBlend mode="normal" in2="shape" result="effect2_innerShadow_1_711"/>
<feColorMatrix in="SourceAlpha" type="matrix" values="0 0 0 0 0 0 0 0 0 0 0 0 0 0 0 0 0 0 127 0" result="hardAlpha"/>
<feOffset dx="-2" dy="2"/>
<feGaussianBlur stdDeviation="1"/>
<feComposite in2="hardAlpha" operator="arithmetic" k2="-1" k3="1"/>
<feColorMatrix type="matrix" values="0 0 0 0 1 0 0 0 0 1 0 0 0 0 1 0 0 0 0.25 0"/>
<feBlend mode="normal" in2="effect2_innerShadow_1_711" result="effect3_innerShadow_1_711"/>
</filter>
<radialGradient id="paint0_radial_1_711" cx="0" cy="0" r="1" gradientUnits="userSpaceOnUse" gradientTransform="translate(105.369 10.7114) rotate(61.7155) scale(4.29644 4.22956)">
<stop stop-color="white"/>
<stop offset="1" stop-color="#F9E84F"/>
</radialGradient>
<linearGradient id="paint1_linear_1_711" x1="86.3583" y1="40.6141" x2="87.3865" y2="22.4777" gradientUnits="userSpaceOnUse">
<stop offset="1" stop-color="#16425B"/>
</linearGradient>
<linearGradient id="paint2_linear_1_711" x1="86.3583" y1="40.6141" x2="87.3865" y2="22.4777" gradientUnits="userSpaceOnUse">
<stop offset="1" stop-color="#16425B"/>
</linearGradient>
<radialGradient id="paint3_radial_1_711" cx="0" cy="0" r="1" gradientUnits="userSpaceOnUse" gradientTransform="translate(16.3864 1.45019) rotate(155.688) scale(8.58638 10.5918)">
<stop stop-color="#16425B" stop-opacity="0.898638"/>
<stop offset="1" stop-color="#16425B"/>
</radialGradient>
<linearGradient id="paint4_linear_1_711" x1="75.4591" y1="6.97634" x2="78.1284" y2="10.5459" gradientUnits="userSpaceOnUse">
<stop offset="1" stop-color="#16425B"/>
</linearGradient>
<linearGradient id="paint5_linear_1_711" x1="64.8012" y1="31.5425" x2="74.409" y2="21.6763" gradientUnits="userSpaceOnUse">
<stop offset="1" stop-color="#16425B"/>
</linearGradient>
<radialGradient id="paint6_radial_1_711" cx="0" cy="0" r="1" gradientUnits="userSpaceOnUse" gradientTransform="translate(101.255 12.9245) rotate(-178.234) scale(5.00233 5.88881)">
<stop stop-color="#16425B" stop-opacity="0.898638"/>
<stop offset="1" stop-color="#16425B"/>
</radialGradient>
<radialGradient id="paint7_radial_1_711" cx="0" cy="0" r="1" gradientUnits="userSpaceOnUse" gradientTransform="translate(69.8697 6.63494) rotate(44.4939) scale(6.7477 5.58685)">
<stop stop-color="white"/>
<stop offset="1" stop-color="#F9E84F"/>
</radialGradient>
<linearGradient id="paint8_linear_1_711" x1="59.4091" y1="48.4957" x2="60.4373" y2="30.3593" gradientUnits="userSpaceOnUse">
<stop offset="1" stop-color="#16425B"/>
</linearGradient>
<linearGradient id="paint9_linear_1_711" x1="59.4091" y1="48.4957" x2="60.4373" y2="30.3593" gradientUnits="userSpaceOnUse">
<stop offset="1" stop-color="#16425B"/>
</linearGradient>
<radialGradient id="paint10_radial_1_711" cx="0" cy="0" r="1" gradientUnits="userSpaceOnUse" gradientTransform="translate(16.3864 1.45019) rotate(155.688) scale(8.58638 10.5918)">
<stop stop-color="#16425B" stop-opacity="0.898638"/>
<stop offset="1" stop-color="#16425B"/>
</radialGradient>
<linearGradient id="paint11_linear_1_711" x1="48.5099" y1="14.858" x2="51.1792" y2="18.4276" gradientUnits="userSpaceOnUse">
<stop offset="1" stop-color="#16425B"/>
</linearGradient>
<linearGradient id="paint12_linear_1_711" x1="37.852" y1="39.4242" x2="47.4598" y2="29.558" gradientUnits="userSpaceOnUse">
<stop offset="1" stop-color="#16425B"/>
</linearGradient>
<radialGradient id="paint13_radial_1_711" cx="0" cy="0" r="1" gradientUnits="userSpaceOnUse" gradientTransform="translate(74.3058 20.8062) rotate(-178.234) scale(5.00233 5.88881)">
<stop stop-color="#16425B" stop-opacity="0.898638"/>
<stop offset="1" stop-color="#16425B"/>
</radialGradient>
<radialGradient id="paint14_radial_1_711" cx="0" cy="0" r="1" gradientUnits="userSpaceOnUse" gradientTransform="translate(47.7704 18.927) rotate(71.7987) scale(4.29644 4.22956)">
<stop stop-color="white"/>
<stop offset="1" stop-color="#F9E84F"/>
</radialGradient>
<radialGradient id="paint15_radial_1_711" cx="0" cy="0" r="1" gradientUnits="userSpaceOnUse" gradientTransform="translate(83.8692 28.2717) rotate(47.5) scale(4.29644 4.22956)">
<stop stop-color="white"/>
<stop offset="1" stop-color="#F9E84F"/>
</radialGradient>
</defs>
</svg>
