<svg width="132" height="132" viewBox="0 0 132 132" fill="none" xmlns="http://www.w3.org/2000/svg">
<path fill-rule="evenodd" clip-rule="evenodd" d="M65.8182 50.3636C57.2796 50.3636 50.3636 57.4545 50.3636 66.2091C50.3636 73.2207 54.7875 79.1429 60.9307 81.2425C61.7034 81.3811 61.9932 80.9058 61.9932 80.4898C61.9932 80.1135 61.9739 78.8657 61.9739 77.5386C58.0909 78.2714 57.0864 76.5681 56.7773 75.6768C56.6034 75.2212 55.85 73.8149 55.1932 73.4386C54.6523 73.1415 53.8796 72.4086 55.1739 72.3888C56.3909 72.369 57.2602 73.5376 57.55 74.013C58.9409 76.4096 61.1625 75.7362 62.0511 75.3202C62.1864 74.2903 62.5921 73.597 63.0364 73.2009C59.5977 72.8048 56.0046 71.4381 56.0046 65.3772C56.0046 63.654 56.6034 62.2279 57.5886 61.1187C57.4341 60.7226 56.8932 59.0985 57.7432 56.9197C57.7432 56.9197 59.0375 56.5038 61.9932 58.5439C63.2296 58.1873 64.5432 58.0091 65.8568 58.0091C67.1705 58.0091 68.4841 58.1873 69.7205 58.5439C72.6761 56.484 73.9705 56.9197 73.9705 56.9197C74.8205 59.0985 74.2796 60.7226 74.125 61.1187C75.1102 62.2279 75.7091 63.6342 75.7091 65.3772C75.7091 71.4579 72.0966 72.8048 68.658 73.2009C69.2182 73.6961 69.7011 74.6468 69.7011 76.1323C69.7011 78.2516 69.6818 79.955 69.6818 80.4898C69.6818 80.9058 69.9716 81.4009 70.7443 81.2425C73.8123 80.1805 76.4782 78.1588 78.3668 75.462C80.2555 72.7652 81.2718 69.5291 81.2727 66.2091C81.2727 57.4545 74.3568 50.3636 65.8182 50.3636Z" fill="url(#paint0_linear_1_114)"/>
<g filter="url(#filter0_f_1_114)">
<path fill-rule="evenodd" clip-rule="evenodd" d="M65.8182 50.3636C57.2796 50.3636 50.3636 57.4545 50.3636 66.2091C50.3636 73.2207 54.7875 79.1429 60.9307 81.2425C61.7034 81.3811 61.9932 80.9058 61.9932 80.4898C61.9932 80.1135 61.9739 78.8657 61.9739 77.5386C58.0909 78.2714 57.0864 76.5681 56.7773 75.6768C56.6034 75.2212 55.85 73.8149 55.1932 73.4386C54.6523 73.1415 53.8796 72.4086 55.1739 72.3888C56.3909 72.369 57.2602 73.5376 57.55 74.013C58.9409 76.4096 61.1625 75.7362 62.0511 75.3202C62.1864 74.2903 62.5921 73.597 63.0364 73.2009C59.5977 72.8048 56.0046 71.4381 56.0046 65.3772C56.0046 63.654 56.6034 62.2279 57.5886 61.1187C57.4341 60.7226 56.8932 59.0985 57.7432 56.9197C57.7432 56.9197 59.0375 56.5038 61.9932 58.5439C63.2296 58.1873 64.5432 58.0091 65.8568 58.0091C67.1705 58.0091 68.4841 58.1873 69.7205 58.5439C72.6761 56.484 73.9705 56.9197 73.9705 56.9197C74.8205 59.0985 74.2796 60.7226 74.125 61.1187C75.1102 62.2279 75.7091 63.6342 75.7091 65.3772C75.7091 71.4579 72.0966 72.8048 68.658 73.2009C69.2182 73.6961 69.7011 74.6468 69.7011 76.1323C69.7011 78.2516 69.6818 79.955 69.6818 80.4898C69.6818 80.9058 69.9716 81.4009 70.7443 81.2425C73.8123 80.1805 76.4782 78.1588 78.3668 75.462C80.2555 72.7652 81.2718 69.5291 81.2727 66.2091C81.2727 57.4545 74.3568 50.3636 65.8182 50.3636Z" fill="url(#paint1_linear_1_114)"/>
</g>
<defs>
<filter id="filter0_f_1_114" x="0.363647" y="0.363647" width="130.909" height="130.909" filterUnits="userSpaceOnUse" color-interpolation-filters="sRGB">
<feFlood flood-opacity="0" result="BackgroundImageFix"/>
<feBlend mode="normal" in="SourceGraphic" in2="BackgroundImageFix" result="shape"/>
<feGaussianBlur stdDeviation="25" result="effect1_foregroundBlur_1_114"/>
</filter>
<linearGradient id="paint0_linear_1_114" x1="79.0111" y1="48.4055" x2="47.8963" y2="72.0009" gradientUnits="userSpaceOnUse">
<stop stop-color="#009BFF"/>
<stop offset="1" stop-color="#00FFE0"/>
</linearGradient>
<linearGradient id="paint1_linear_1_114" x1="79.0111" y1="48.4055" x2="47.8963" y2="72.0009" gradientUnits="userSpaceOnUse">
<stop stop-color="#009BFF"/>
<stop offset="1" stop-color="#00FFE0"/>
</linearGradient>
</defs>
</svg>
