<svg width="125" height="125" viewBox="0 0 125 125" fill="none" xmlns="http://www.w3.org/2000/svg">
<path fill-rule="evenodd" clip-rule="evenodd" d="M57.0093 45.0047C57.0093 46.6641 55.6641 48.0093 54.0047 48.0093C52.3452 48.0093 51 46.6641 51 45.0047C51 43.3452 52.3452 42 54.0047 42C55.6641 42 57.0093 43.3452 57.0093 45.0047ZM59.8465 66.9561V50.2862H64.8149V52.5658H64.8849C65.5757 51.2571 67.2648 49.8743 69.7847 49.8743C75.0332 49.8743 76 53.3252 76 57.8158V66.9575H70.8215V58.8498C70.8215 56.9177 70.7885 54.4307 68.1285 54.4307C65.4315 54.4307 65.0223 56.5373 65.0223 58.7125V66.9561H59.8465ZM56.596 50.2862H51.412V66.9561H56.596V50.2862Z" fill="url(#paint0_linear_1_126)"/>
<g filter="url(#filter0_f_1_126)">
<path fill-rule="evenodd" clip-rule="evenodd" d="M62.5 50C55.5937 50 50 55.7352 50 62.8162C50 68.4873 53.5781 73.2774 58.5469 74.9755C59.1719 75.0877 59.4062 74.7032 59.4062 74.3667C59.4062 74.0624 59.3906 73.0531 59.3906 71.9797C56.25 72.5725 55.4375 71.1947 55.1875 70.4738C55.0469 70.1054 54.4375 68.9679 53.9062 68.6636C53.4688 68.4232 52.8437 67.8305 53.8906 67.8145C54.875 67.7985 55.5781 68.7437 55.8125 69.1281C56.9375 71.0666 58.7344 70.5219 59.4531 70.1855C59.5625 69.3524 59.8906 68.7917 60.25 68.4713C57.4688 68.1509 54.5625 67.0455 54.5625 62.1433C54.5625 60.7496 55.0469 59.5961 55.8438 58.699C55.7188 58.3786 55.2812 57.0649 55.9688 55.3027C55.9688 55.3027 57.0156 54.9663 59.4062 56.6163C60.4062 56.328 61.4687 56.1838 62.5312 56.1838C63.5937 56.1838 64.6562 56.328 65.6562 56.6163C68.0469 54.9502 69.0938 55.3027 69.0938 55.3027C69.7812 57.0649 69.3438 58.3786 69.2188 58.699C70.0156 59.5961 70.5 60.7335 70.5 62.1433C70.5 67.0615 67.5781 68.1509 64.7969 68.4713C65.25 68.8718 65.6406 69.6408 65.6406 70.8423C65.6406 72.5565 65.625 73.9342 65.625 74.3667C65.625 74.7032 65.8594 75.1037 66.4844 74.9755C68.9658 74.1165 71.1221 72.4814 72.6496 70.3001C74.1772 68.1189 74.9993 65.5015 75 62.8162C75 55.7352 69.4062 50 62.5 50Z" fill="url(#paint1_linear_1_126)"/>
</g>
<defs>
<filter id="filter0_f_1_126" x="0" y="0" width="125" height="125" filterUnits="userSpaceOnUse" color-interpolation-filters="sRGB">
<feFlood flood-opacity="0" result="BackgroundImageFix"/>
<feBlend mode="normal" in="SourceGraphic" in2="BackgroundImageFix" result="shape"/>
<feGaussianBlur stdDeviation="25" result="effect1_foregroundBlur_1_126"/>
</filter>
<linearGradient id="paint0_linear_1_126" x1="74.1707" y1="40.4189" x2="49.0356" y2="59.5121" gradientUnits="userSpaceOnUse">
<stop stop-color="#0A66C2"/>
<stop offset="1" stop-color="#0AC2C2"/>
</linearGradient>
<linearGradient id="paint1_linear_1_126" x1="73.1707" y1="48.4162" x2="48.0044" y2="67.5007" gradientUnits="userSpaceOnUse">
<stop stop-color="#009BFF"/>
<stop offset="1" stop-color="#00FFE0"/>
</linearGradient>
</defs>
</svg>
